<svg width="24" height="24" viewBox="0 0 24 24" fill="none" xmlns="http://www.w3.org/2000/svg">
<path fill-rule="evenodd" clip-rule="evenodd" d="M11.8601 19.7017C7.4451 19.7017 3.87995 16.0658 4.0031 11.6282C4.11664 7.53169 7.53594 4.1165 11.6373 4.00309C16.0803 3.88009 19.7205 7.44097 19.7205 11.8506C19.7205 13.0344 19.4576 14.1571 18.9886 15.1646L20 20L15.1676 18.975C14.1614 19.4417 13.0409 19.7017 11.8601 19.7017V19.7017Z" stroke="#1F292E" stroke-width="1.5" stroke-linecap="round" stroke-linejoin="round"/>
<path d="M12.7071 11.2929C13.0976 11.6834 13.0976 12.3166 12.7071 12.7071C12.3166 13.0976 11.6834 13.0976 11.2929 12.7071C10.9024 12.3166 10.9024 11.6834 11.2929 11.2929C11.6834 10.9024 12.3166 10.9024 12.7071 11.2929Z" fill="#1F292E"/>
<path d="M9.35616 11.2676C9.77397 11.6854 9.77397 12.3628 9.35616 12.7806C8.93835 13.1984 8.26095 13.1984 7.84314 12.7806C7.42533 12.3628 7.42533 11.6854 7.84314 11.2676C8.26095 10.8498 8.93835 10.8498 9.35616 11.2676Z" fill="#1F292E"/>
<path d="M16.2033 11.2676C16.6211 11.6854 16.6211 12.3628 16.2033 12.7806C15.7855 13.1984 15.1081 13.1984 14.6903 12.7806C14.2725 12.3628 14.2725 11.6854 14.6903 11.2676C15.1081 10.8498 15.7855 10.8498 16.2033 11.2676Z" fill="#1F292E"/>
</svg>
