<?xml version="1.0" encoding="UTF-8"?>
<svg width="42px" height="62px" viewBox="0 0 726 990" version="1.1" xmlns="http://www.w3.org/2000/svg" xmlns:xlink="http://www.w3.org/1999/xlink">
    <!-- Generator: Sketch 52.3 (67297) - http://www.bohemiancoding.com/sketch -->
    <title>Group</title>
    <desc>Created with Sketch.</desc>
    <g id="Page-1" stroke="none" stroke-width="1" fill="none" fill-rule="evenodd">
        <g id="Logo_mark_white_RGB-" transform="translate(-2.000000, -5.000000)" fill="#4992fc">
            <g id="Group" transform="translate(2.000000, 5.000000)">
                <path d="M655.916,338.801 L655.95,338.662 L655.986,338.523 C661.48,317.083 664.898,288.333 666.146,253.07 L668.394,189.581 C613.707,77.906 499.765,2.537 368.543,0.1 C366.59,0.033 364.637,0 362.683,0 C360.896,0 359.141,0.033 357.353,0.066 C245.903,2.881 156.439,94.133 156.439,206.245 C156.439,208.033 156.472,209.788 156.504,211.576 C156.539,213.33 156.605,215.052 156.704,216.774 C162.364,366.395 288.899,474.886 405.957,583.514 C411.162,582.318 416.338,581.003 421.478,579.563 C537.752,546.918 627.583,454.663 655.916,338.801" id="Fill-1"></path>
                <path d="M335.134,618.126 C332.327,618.169 329.515,618.197 326.71,618.319 C324.784,618.402 321.842,618.49 317.993,618.49 C300.147,618.49 262.731,616.611 215.909,603.726 C170.994,591.366 111.063,562.545 76.16,562.545 C-48.203,562.545 18.899,742.513 18.899,742.513 C65.927,886.904 201.684,990 361.854,990 C454.796,990 539.956,955.301 604.322,897.953 C657.333,850.671 696.237,788.027 713.652,716.807 C747.359,585.458 696.402,272.83 696.402,272.83 C695.144,266.472 693.72,260.182 692.131,253.99 C690.906,288.59 687.562,320.045 681.172,344.977 C650.413,470.763 552.803,569.697 428.507,604.596 L428.506,604.595 L428.506,604.596 C398.721,612.94 367.402,617.627 335.134,618.126" id="Fill-3"></path>
            </g>
        </g>
    </g>
</svg>