<svg width="24" height="24" viewBox="0 0 24 24" fill="none" xmlns="http://www.w3.org/2000/svg">
<path d="M12 4.5H20" stroke="#1F292E" stroke-width="1.5" stroke-linecap="round" stroke-linejoin="round"/>
<path d="M12 12.5H20" stroke="#1F292E" stroke-width="1.5" stroke-linecap="round" stroke-linejoin="round"/>
<path d="M12 19.5H20" stroke="#1F292E" stroke-width="1.5" stroke-linecap="round" stroke-linejoin="round"/>
<path fill-rule="evenodd" clip-rule="evenodd" d="M7 4.5C7 3.67166 6.32834 3 5.5 3C4.67166 3 4 3.67166 4 4.5C4 5.32834 4.67166 6 5.5 6C6.32834 6 7 5.32834 7 4.5Z" stroke="#1F292E" stroke-width="1.5" stroke-linecap="round" stroke-linejoin="round"/>
<path fill-rule="evenodd" clip-rule="evenodd" d="M7 12.5C7 11.6717 6.32885 11 5.50052 11C4.67166 11 4 11.6717 4 12.5C4 13.3283 4.67166 14 5.50052 14C6.32885 14 7 13.3283 7 12.5Z" stroke="#1F292E" stroke-width="1.5" stroke-linecap="round" stroke-linejoin="round"/>
<path fill-rule="evenodd" clip-rule="evenodd" d="M7 19.5C7 18.6717 6.32885 18 5.50052 18C4.67166 18 4 18.6717 4 19.5C4 20.3283 4.67166 21 5.50052 21C6.32885 21 7 20.3283 7 19.5Z" stroke="#1F292E" stroke-width="1.5" stroke-linecap="round" stroke-linejoin="round"/>
</svg>
